<?xml version="1.0" encoding="utf-8"?>
<!-- Generator: Adobe Illustrator 24.2.0, SVG Export Plug-In . SVG Version: 6.00 Build 0)  -->
<svg version="1.1" id="Capa_1" xmlns="http://www.w3.org/2000/svg" xmlns:xlink="http://www.w3.org/1999/xlink" x="0px" y="0px"
	 viewBox="0 0 328.13 68.64" style="enable-background:new 0 0 328.13 68.64;" xml:space="preserve">
<style type="text/css">
	.st0{fill:#FFFFFF;}
	.st1{fill:#E4221F;}
</style>
<g>
	<g>
		<path class="st0" d="M47.75,45.96c1.2,0,1.57,0.59,1.11,1.77l-3.81,9.26c-0.55,1.23-1.41,1.84-2.56,1.84H14.73
			c-3.28,0-5.6-1.11-6.96-3.34c-1.36-2.22-1.37-4.95-0.03-8.17l10.73-26c1.75-4.26,3.84-7.25,6.27-8.95
			c2.42-1.7,5.8-2.55,10.14-2.55h27.76c1.15,0,1.5,0.61,1.04,1.84l-3.81,9.26c-0.46,1.18-1.29,1.77-2.49,1.77H34.05
			c-0.41,0-0.74,0.25-0.97,0.75l-9,21.85c-0.14,0.45,0,0.68,0.42,0.68H47.75z"/>
		<path class="st0" d="M95.24,45.96c1.2,0,1.57,0.59,1.11,1.77l-3.81,9.26c-0.55,1.23-1.41,1.84-2.56,1.84H51.84
			c-1.25,0-1.59-0.61-1.04-1.84l18.62-45.33c0.55-1.23,1.41-1.84,2.56-1.84h38.14c1.25,0,1.59,0.61,1.04,1.84l-3.81,9.26
			c-0.46,1.18-1.29,1.77-2.49,1.77H80.01c-0.51,0-0.83,0.23-0.97,0.68l-9.07,21.92c-0.14,0.45,0,0.68,0.42,0.68H95.24z M79.25,30.64
			c0.55-1.23,1.41-1.84,2.56-1.84h17.45c1.25,0,1.59,0.61,1.04,1.84l-2.98,7.35c-0.55,1.23-1.41,1.84-2.56,1.84H77.31
			c-1.25,0-1.59-0.61-1.04-1.84L79.25,30.64z"/>
		<path class="st0" d="M142.04,45.96c1.2,0,1.57,0.59,1.11,1.77l-3.81,9.26c-0.55,1.23-1.41,1.84-2.56,1.84h-27.76
			c-3.28,0-5.6-1.11-6.96-3.34c-1.36-2.22-1.37-4.95-0.03-8.17l10.73-26c1.75-4.26,3.84-7.25,6.27-8.95
			c2.42-1.7,5.8-2.55,10.14-2.55h27.76c1.15,0,1.5,0.61,1.04,1.84l-3.81,9.26c-0.46,1.18-1.29,1.77-2.49,1.77h-23.33
			c-0.41,0-0.74,0.25-0.97,0.75l-9,21.85c-0.14,0.45,0,0.68,0.42,0.68H142.04z"/>
		<path class="st0" d="M167.74,30.27c0.32-0.77,0.88-1.16,1.66-1.16h12.88c0.79,0,1.02,0.39,0.69,1.16l-3.32,8.1
			c-0.32,0.77-0.88,1.16-1.66,1.16h-12.88c-0.79,0-1.02-0.39-0.69-1.16L167.74,30.27z"/>
		<path class="st1" d="M203.14,57.05c-0.46,1.18-1.34,1.77-2.63,1.77h-10.87c-1.25,0-1.59-0.59-1.04-1.77l18.62-45.4
			c0.46-1.18,1.29-1.77,2.49-1.77h36.48c1.2,0,1.57,0.59,1.11,1.77l-3.81,9.26c-0.46,1.18-1.29,1.77-2.49,1.77h-23.19
			c-0.46,0-0.79,0.2-0.97,0.61L203.14,57.05z M217.12,30.64c0.51-1.18,1.36-1.77,2.56-1.77h15.51c1.2,0,1.54,0.59,1.04,1.77
			l-3.04,7.42c-0.46,1.18-1.29,1.77-2.49,1.77h-15.51c-1.2,0-1.57-0.59-1.11-1.77L217.12,30.64z"/>
		<path class="st1" d="M271.26,43.37c0.41-1.13,1.22-1.7,2.42-1.7h11.08c1.11,0,1.46,0.57,1.04,1.7l-1.66,3.95
			c-1.75,4.27-3.84,7.25-6.27,8.95c-2.42,1.7-5.8,2.55-10.14,2.55h-22.57c-3.28,0-5.6-1.11-6.96-3.34
			c-1.36-2.22-1.38-4.95-0.04-8.17l10.73-26c1.75-4.26,3.84-7.25,6.27-8.95c2.42-1.7,5.8-2.55,10.14-2.55h24.3
			c1.15,0,1.5,0.61,1.04,1.84l-3.81,9.26c-0.46,1.18-1.29,1.77-2.49,1.77h-20.77c-0.51,0-0.83,0.23-0.97,0.68l-9.07,21.92
			c-0.14,0.45,0,0.68,0.41,0.68h15.51c0.51,0,0.83-0.23,0.97-0.68L271.26,43.37z M266.07,38.95c-1.25,0-1.59-0.59-1.04-1.77
			l2.98-7.35c0.51-1.18,1.36-1.77,2.56-1.77h19.73c1.2,0,1.54,0.59,1.04,1.77l-3.04,7.42c-0.51,1.13-1.32,1.7-2.42,1.7H266.07z"/>
		<path class="st1" d="M306.63,11.65c0.55-1.23,1.41-1.84,2.56-1.84h10.94c1.25,0,1.59,0.61,1.04,1.84l-18.62,45.33
			c-0.55,1.23-1.41,1.84-2.56,1.84h-10.94c-1.25,0-1.59-0.61-1.04-1.84L306.63,11.65z"/>
	</g>
</g>
</svg>
